*******************************************************************************
          Drainiac (2000) Digitally Remastered DVDRip - RadioResearch
*******************************************************************************

-------------------------------------------------------------------------------
                              General Information
-------------------------------------------------------------------------------
Type.................: Movie



Video Format.........: AVI
Video Bitrate........: 1517
Resolution...........: 720 x 406
Color................: 8 bit
FPS..................: 29.970
Source...............: DVD 16x9
Original Format......: NTSC
Genre................: Horror
IMDb Rating..........: 4.7
Movie Information....: http://www.imdb.com/title/tt0138408/

-------------------------------------------------------------------------------
                               Post Information
-------------------------------------------------------------------------------
Posted by............: RadioResearch
Posted on............: 5/13/2013

-------------------------------------------------------------------------------
                                 Release Notes
-------------------------------------------------------------------------------
SEEDBOX SUPPORTED!!

By all appearances, itΓÇÖs just another deserted old house moldering away in the 
New England countryside ΓÇô rundown, lonely, forgotten. The rural landscape is 
littered with hundreds of them. But this house is different, horribly different, 
because below the crumbling foundation and within rusting pipes dwells some 
thing that is about to be unleashed. Julie Ashbrook and a group of friends have 
taken up residence in the house while they clean it up for a planned 
restoration.

Strange and inexplicable occurrences involving water is just the beginning as 
gruesome death-by-plumbing takes its toll on the terrified inhabitants. Drip by 
steady drip the fleshless entity begins to take shape, and Julie and her friends 
soon come face to face with the bloodthirsty monster in all its aqueous evil - 
an ancient water demon that wants to tear them apart and flush them down the 
toilet.

Cult horror director and special fx master Brett Piper has built an impressive 
filmography featuring some of the most outrageous ΓÇÿBΓÇÖ monster movies produced 
over the last 20 years including Screaming Dead, Psyclops, Arachnia, Bite Me, 
Shock-O-Rama and Bacterium. For this Special Edition DVD release, PiperΓÇÖs 2000 
horror outing Drainiac has been newly telecined from its original negatives and 
pre-mastered in hi-definition, image and sound re-edited, fx-enhanced, and 
presented in 1.78:1 widescreen - offering fans a never-before-seen cut and the 
definitive version of the film.

Enjoy!

RadioResearch

General
Complete name                            : G:Drainiac (2000) Digitally 
Remastered DVDRip - RadioResearchDrainiac - {RadioResearch}.avi
Format                                   : AVI
Format/Info                              : Audio Video Interleave
File size                                : 829 MiB
Duration                                 : 1h 16mn
Overall bit rate                         : 1 517 Kbps
Movie name                               : DVD_PROJECT.Title20.DVDRip
Writing application                      : Lavf53.32.100
Original source form/Name                : DVD_PROJECT

Video
ID                                       : 0
Format                                   : MPEG-4 Visual
Format profile                           : Advanced Simple@L5
Format settings, BVOP                    : 2
Format settings, QPel                    : No
Format settings, GMC                     : No warppoints
Format settings, Matrix                  : Default (H.263)
Muxing mode                              : Packed bitstream
Codec ID                                 : XVID
Codec ID/Hint                            : XviD
Duration                                 : 1h 16mn
Bit rate                                 : 1 313 Kbps
Width                                    : 720 pixels
Height                                   : 406 pixels
Display aspect ratio                     : 16:9
Frame rate                               : 29.970 fps
Color space                              : YUV
Chroma subsampling                       : 4:2:0
Bit depth                                : 8 bits
Scan type                                : Progressive
Compression mode                         : Lossy
Bits/(Pixel*Frame)                       : 0.150
Stream size                              : 717 MiB (87%)
Writing library                          : XviD 64

Audio
ID                                       : 1
Format                                   : AC-3
Format/Info                              : Audio Coding 3
Mode extension                           : CM (complete main)
Format settings, Endianness              : Big
Codec ID                                 : 2000
Duration                                 : 1h 16mn
Bit rate mode                            : Constant
Bit rate                                 : 192 Kbps
Channel(s)                               : 2 channels
Channel positions                        : Front: L R
Sampling rate                            : 48.0 KHz
Bit depth                                : 16 bits
Compression mode                         : Lossy
Stream size                              : 105 MiB (13%)
Alignment                                : Aligned on interleaves
Interleave, duration                     : 32 ms (0.96 video frame)

AVI FILE MD5 HASH  f519ae3b6188bb646b1aef02d6b1042b



-------------------------------------------------------------------------------
Generated with Cool NFO Creator - http://fly.to/coolbeans
-------------------------------------------------------------------------------
